<svg width="22" height="22" viewBox="0 0 22 22" fill="none" xmlns="http://www.w3.org/2000/svg">
<path id="Vector" d="M11.3419 0.604444C10.4983 0.604591 9.81677 1.28608 9.84908 2.09724L9.84774 9.81948L2.15795 9.78837C1.31434 9.78851 0.632851 10.47 0.665156 11.2812C0.665009 12.1248 1.34626 12.806 2.15743 12.7734L9.84722 12.8045L9.81343 20.4943C9.81329 21.3379 10.4945 22.0192 11.3057 21.9866C11.6951 21.9865 12.1169 21.8242 12.3765 21.5646C12.6361 21.305 12.8309 20.9156 12.7985 20.4938L12.8323 12.804L20.4896 12.8027C20.879 12.8026 21.3008 12.6403 21.5604 12.3807C21.82 12.1211 22.0148 11.7317 21.9824 11.3099C21.9826 10.4663 21.3013 9.78504 20.4901 9.81762L12.8328 9.81896L12.8341 2.16161C12.8343 1.31801 12.153 0.636749 11.3419 0.604444Z" fill="#3C7E2D"/>
</svg>
