<svg width="22" height="28" viewBox="0 0 22 28" fill="none" xmlns="http://www.w3.org/2000/svg">
<g id="Group 4795">
<path id="Vector" d="M9.60555 24.6439H1.59554C1.36527 24.6437 1.14447 24.552 0.98164 24.3892C0.818814 24.2264 0.727324 24.0056 0.726914 23.7753V8.2474C0.717662 7.97663 0.836082 7.71698 1.04681 7.54655C1.77276 6.92445 3.74129 6.79345 6.31261 7.19458V7.19479C6.55624 7.23323 6.80377 7.15284 6.9783 6.9785C7.15264 6.80395 7.23303 6.55663 7.19438 6.31282C6.79409 3.74065 6.92567 1.77212 7.548 1.04649L7.5482 1.0467C7.71885 0.83617 7.9783 0.717954 8.24905 0.727207H17.2038C17.4343 0.727412 17.6551 0.818901 17.8179 0.981728C17.9807 1.14455 18.0722 1.36537 18.0724 1.59583V16.1774C18.0698 16.2757 18.1068 16.3709 18.1752 16.4412C18.2437 16.5117 18.3378 16.5514 18.4361 16.5514C18.5344 16.5514 18.6283 16.5117 18.6968 16.4412C18.7653 16.3709 18.8025 16.2757 18.7996 16.1774V1.59583C18.799 1.17272 18.6308 0.767096 18.3317 0.467938C18.0325 0.168779 17.6269 0.000626354 17.2038 1.05637e-05H7.95639C7.20597 -0.00204533 6.48581 0.296064 5.9566 0.828117L0.82812 5.9566C0.296066 6.48581 -0.00225038 7.20597 1.27836e-05 7.95639V23.7754C0.000423942 24.1985 0.168802 24.6041 0.46794 24.9031C0.767077 25.2022 1.17273 25.3706 1.59563 25.3712H9.60564C9.70391 25.3739 9.7991 25.3369 9.86962 25.2684C9.93993 25.1999 9.97982 25.1058 9.97982 25.0075C9.97982 24.9092 9.93993 24.8153 9.86962 24.7468C9.7991 24.6783 9.70391 24.6411 9.60564 24.644L9.60555 24.6439ZM6.46986 1.34232C6.51427 1.29791 6.56587 1.2642 6.61337 1.22452C6.026 2.65236 6.25584 5.01031 6.47644 6.425L6.42484 6.4766C5.01178 6.2558 2.6522 6.02574 1.22477 6.61394C1.26466 6.56686 1.29796 6.51546 1.34258 6.47126L6.46986 1.34232Z" fill="#3C7E2D"/>
<path id="Vector_2" d="M2.99184 10.5844H13.1787C13.277 10.5873 13.3722 10.5503 13.4427 10.4818C13.513 10.4134 13.5529 10.3192 13.5529 10.2209C13.5529 10.1227 13.513 10.0287 13.4427 9.96025C13.3722 9.89158 13.277 9.85458 13.1787 9.85746H2.99184C2.79509 9.86301 2.63843 10.0242 2.63843 10.2209C2.63843 10.4179 2.79509 10.5789 2.99184 10.5844Z" fill="#3C7E2D"/>
<path id="Vector_3" d="M16.1709 12.8503C16.1709 12.6494 16.0082 12.4868 15.8074 12.4866H2.99208C2.79533 12.4921 2.63867 12.6533 2.63867 12.8501C2.63867 13.047 2.79534 13.208 2.99208 13.2138H15.8074C16.008 13.2135 16.1706 13.0509 16.1709 12.8503Z" fill="#3C7E2D"/>
<path id="Vector_4" d="M2.99184 15.1145C2.79509 15.1203 2.63843 15.2812 2.63843 15.4782C2.63843 15.675 2.79509 15.8361 2.99184 15.8417H10.5497C10.7467 15.8361 10.9032 15.6749 10.9032 15.4782C10.9032 15.2812 10.7467 15.1203 10.5497 15.1145H2.99184Z" fill="#3C7E2D"/>
<path id="Vector_5" d="M15.8072 16.7576C14.3164 16.7576 12.8865 17.3497 11.8323 18.4039C10.778 19.458 10.1857 20.8877 10.1857 22.3787C10.1857 23.8694 10.7778 25.2993 11.832 26.3536C12.8861 27.4076 14.316 28 15.8068 28C17.2977 28.0002 18.7274 27.4079 19.7817 26.3536C20.836 25.2995 21.4281 23.8696 21.4281 22.3788C21.4264 20.8885 20.8337 19.4596 19.7801 18.406C18.7262 17.3521 17.2975 16.7594 15.8072 16.7576H15.8072ZM15.8072 27.2729C14.5095 27.2729 13.265 26.7574 12.3475 25.8398C11.4301 24.9223 10.9145 23.6778 10.9145 22.3804C10.9145 21.0827 11.4301 19.8382 12.3475 18.9207C13.265 18.0031 14.5095 17.4877 15.8072 17.4877C17.1048 17.4877 18.3493 18.0031 19.2668 18.9207C20.1844 19.8383 20.6998 21.0827 20.6998 22.3804C20.698 23.6773 20.182 24.9207 19.2648 25.8378C18.3476 26.7549 17.1042 27.271 15.8072 27.2729Z" fill="#3C7E2D"/>
<path id="Vector_6" d="M19.0256 20.1197L18.0661 19.1606C17.9037 18.9969 17.6825 18.905 17.452 18.9056C17.2213 18.9048 17.0001 18.9967 16.8379 19.1606L16.3387 19.6587L13.5091 22.4883C13.4479 22.551 13.3967 22.623 13.3572 22.7013C13.3519 22.7128 13.3471 22.7237 13.343 22.7354C13.319 22.7809 13.2992 22.8284 13.284 22.8773L12.7628 24.8226C12.723 24.9698 12.7542 25.1273 12.8469 25.2484C12.9399 25.3695 13.084 25.4404 13.2365 25.44C13.2791 25.4402 13.3214 25.4345 13.3623 25.4231L15.3077 24.902V24.9022C15.3568 24.8868 15.4045 24.867 15.4501 24.8432C15.4617 24.8391 15.4732 24.8343 15.4843 24.829C15.5628 24.7897 15.6348 24.7385 15.6977 24.6773L19.0256 21.3491C19.1886 21.1861 19.2801 20.9649 19.2801 20.7344C19.2801 20.5039 19.1886 20.2827 19.0256 20.1197ZM17.452 19.6328C17.4894 19.6331 17.5254 19.6481 17.5521 19.6748L18.5114 20.6339V20.6337C18.567 20.6892 18.567 20.779 18.5114 20.8346L18.2686 21.0774L17.1097 19.9172L17.3525 19.6746V19.6748C17.3807 19.651 17.4154 19.6363 17.452 19.6328ZM13.8578 23.5442L14.6416 24.328L13.5715 24.6148L13.8578 23.5442ZM15.3438 24.0023L14.1835 22.8419L16.5946 20.4313L17.7544 21.5915L15.3438 24.0023Z" fill="#3C7E2D"/>
</g>
</svg>
