<svg width="28" height="37" viewBox="0 0 28 37" fill="none" xmlns="http://www.w3.org/2000/svg">
<g id="Group 4798">
<path id="Vector" d="M12.5516 32.2022H2.08489C1.784 32.202 1.49548 32.0822 1.28271 31.8694C1.06994 31.6566 0.950395 31.3681 0.949858 31.0672V10.7769C0.937769 10.4231 1.09251 10.0838 1.36787 9.86108C2.31647 9.04818 4.88875 8.877 8.24869 9.40116V9.40143C8.56704 9.45166 8.89049 9.34662 9.11854 9.11881C9.34636 8.89073 9.4514 8.56754 9.40089 8.24896C8.87784 4.88791 9.04977 2.31563 9.86297 1.36745L9.86324 1.36772C10.0862 1.09262 10.4253 0.93815 10.779 0.950241H22.4802C22.7814 0.950509 23.0699 1.07006 23.2827 1.28282C23.4954 1.49559 23.615 1.78412 23.6152 2.08528V21.1391C23.6117 21.2675 23.6601 21.3919 23.7496 21.4837C23.839 21.5759 23.9621 21.6277 24.0905 21.6277C24.2189 21.6277 24.3417 21.5759 24.4311 21.4837C24.5206 21.3919 24.5692 21.2675 24.5654 21.1391V2.08528C24.5646 1.5324 24.3449 1.00236 23.954 0.611454C23.5631 0.220544 23.0331 0.000818457 22.4802 1.38035e-05H10.3966C9.41605 -0.00267264 8.47501 0.386866 7.78349 1.0821L1.0821 7.78349C0.38687 8.47501 -0.00294057 9.41604 1.67044e-05 10.3966V31.0673C0.000553965 31.6202 0.220574 32.1502 0.611457 32.5408C1.00234 32.9317 1.53241 33.1517 2.08501 33.1525H12.5517C12.6801 33.156 12.8045 33.1077 12.8966 33.0182C12.9885 32.9287 13.0406 32.8057 13.0406 32.6773C13.0406 32.5489 12.9885 32.4261 12.8966 32.3367C12.8045 32.2472 12.6801 32.1986 12.5517 32.2023L12.5516 32.2022ZM8.45417 1.75401C8.5122 1.69599 8.57962 1.65193 8.64169 1.60008C7.87417 3.46584 8.17451 6.54698 8.46276 8.39555L8.39533 8.46298C6.54889 8.17445 3.46563 7.87383 1.60041 8.64244C1.65253 8.58092 1.69605 8.51375 1.75435 8.456L8.45417 1.75401Z" fill="#3C7E2D"/>
<path id="Vector_2" d="M3.90943 13.8308H17.2206C17.349 13.8345 17.4734 13.7862 17.5655 13.6967C17.6574 13.6072 17.7095 13.4842 17.7095 13.3558C17.7095 13.2274 17.6574 13.1046 17.5655 13.0151C17.4734 12.9254 17.349 12.8771 17.2206 12.8808H3.90943C3.65234 12.8881 3.44763 13.0987 3.44763 13.3558C3.44763 13.6131 3.65234 13.8235 3.90943 13.8308Z" fill="#3C7E2D"/>
<path id="Vector_3" d="M21.1305 16.7914C21.1305 16.5289 20.918 16.3164 20.6555 16.3162H3.90977C3.65267 16.3234 3.44797 16.534 3.44797 16.7911C3.44797 17.0485 3.65268 17.2588 3.90977 17.2664H20.6555C20.9177 17.2661 21.1302 17.0536 21.1305 16.7914Z" fill="#3C7E2D"/>
<path id="Vector_4" d="M3.90943 19.75C3.65234 19.7575 3.44763 19.9679 3.44763 20.2252C3.44763 20.4823 3.65234 20.693 3.90943 20.7002H13.7854C14.0427 20.693 14.2472 20.4823 14.2472 20.2252C14.2472 19.9679 14.0427 19.7575 13.7854 19.75H3.90943Z" fill="#3C7E2D"/>
<path id="Vector_5" d="M20.6552 21.8972C18.7072 21.8972 16.8388 22.6709 15.4612 24.0485C14.0836 25.4259 13.3096 27.294 13.3096 29.2423C13.3096 31.1903 14.0833 33.0587 15.4609 34.4363C16.8382 35.8137 18.7067 36.5876 20.6547 36.5876C22.6029 36.5879 24.4711 35.8139 25.8487 34.4363C27.2263 33.059 28 31.1906 28 29.2425C27.9979 27.2951 27.2234 25.428 25.8466 24.0512C24.4695 22.6742 22.6027 21.8996 20.6553 21.8972H20.6552ZM20.6552 35.6375C18.9595 35.6375 17.3334 34.964 16.1344 33.765C14.9357 32.566 14.2619 30.9399 14.2619 29.2445C14.2619 27.5488 14.9357 25.9227 16.1344 24.7238C17.3334 23.5247 18.9595 22.8512 20.6552 22.8512C22.3509 22.8512 23.977 23.5247 25.176 24.7238C26.375 25.9228 27.0485 27.5488 27.0485 29.2445C27.0461 30.9392 26.3718 32.564 25.1733 33.7624C23.9748 34.9607 22.3501 35.6351 20.6552 35.6375Z" fill="#3C7E2D"/>
<path id="Vector_6" d="M24.8607 26.2905L23.607 25.0372C23.3948 24.8234 23.1057 24.7033 22.8045 24.7041C22.5031 24.703 22.2141 24.8231 22.0021 25.0372L21.3498 25.6882L17.6524 29.3856C17.5723 29.4675 17.5054 29.5615 17.4539 29.6639C17.4469 29.6789 17.4407 29.6932 17.4353 29.7085C17.4039 29.7679 17.3781 29.8299 17.3582 29.8939L16.6772 32.4358C16.6251 32.6282 16.6659 32.834 16.7871 32.9922C16.9085 33.1504 17.0968 33.2431 17.2962 33.2426C17.3518 33.2428 17.4071 33.2353 17.4606 33.2205L20.0025 32.5395V32.5398C20.0667 32.5196 20.1291 32.4938 20.1887 32.4627C20.2037 32.4573 20.2188 32.4511 20.2333 32.4441C20.3359 32.3928 20.4299 32.3259 20.5121 32.2459L24.8607 27.897C25.0738 27.684 25.1933 27.3949 25.1933 27.0938C25.1933 26.7926 25.0738 26.5036 24.8607 26.2905ZM22.8045 25.6543C22.8534 25.6546 22.9004 25.6742 22.9354 25.7091L24.1889 26.9624V26.9621C24.2614 27.0347 24.2614 27.1521 24.1889 27.2246L23.8716 27.5419L22.3572 26.0259L22.6745 25.7089V25.7092C22.7113 25.678 22.7567 25.6589 22.8045 25.6543ZM18.108 30.7653L19.1322 31.7894L17.7338 32.1642L18.108 30.7653ZM20.0498 31.3639L18.5335 29.8476L21.6842 26.6977L23.1996 28.2137L20.0498 31.3639Z" fill="#3C7E2D"/>
</g>
</svg>
