<svg xmlns="http://www.w3.org/2000/svg" width="21" height="22" viewBox="0 0 21 22" fill="none">
  <path d="M17.2912 15.2676H15.7655V13.7449C15.7637 13.6971 15.744 13.6517 15.7105 13.6176C15.677 13.5835 15.6319 13.5632 15.5841 13.5605H14.2185C14.1242 13.5605 14.0585 13.6506 14.0585 13.7449V15.2676H12.4688C12.3745 15.2676 12.3087 15.3576 12.3087 15.4519V16.8176C12.3078 16.8387 12.3113 16.8598 12.3191 16.8795C12.3268 16.8992 12.3386 16.917 12.3537 16.9318C12.3688 16.9466 12.3869 16.9581 12.4067 16.9655C12.4265 16.9728 12.4477 16.976 12.4688 16.9746H14.0585V18.5673C14.0575 18.5884 14.061 18.6095 14.0688 18.6292C14.0765 18.6489 14.0883 18.6667 14.1034 18.6815C14.1185 18.6963 14.1366 18.7078 14.1564 18.7152C14.1762 18.7226 14.1974 18.7257 14.2185 18.7243H15.5841C15.6784 18.7243 15.7655 18.6616 15.7655 18.5673V16.9746H17.2912C17.3855 16.9746 17.4725 16.9119 17.4725 16.8176V15.4519C17.4707 15.4041 17.4511 15.3588 17.4175 15.3247C17.384 15.2906 17.3389 15.2702 17.2912 15.2676ZM17.1311 16.6332H15.5841C15.4898 16.6332 15.4241 16.7233 15.4241 16.8176V18.3829H14.3999V16.8176C14.398 16.7698 14.3784 16.7244 14.3449 16.6903C14.3113 16.6562 14.2663 16.6358 14.2185 16.6332H12.6502V15.609H14.2185C14.3128 15.609 14.3999 15.5463 14.3999 15.4519V13.902H15.4241V15.4519C15.4232 15.4731 15.4267 15.4942 15.4344 15.5139C15.4422 15.5335 15.454 15.5514 15.4691 15.5662C15.4842 15.581 15.5022 15.5925 15.522 15.5998C15.5419 15.6072 15.563 15.6103 15.5841 15.609H17.1311V16.6332Z" fill="#109615" stroke="#109615" stroke-width="0.3"/>
  <path d="M0.444242 17.4746C0.489515 17.4746 0.532934 17.4566 0.564948 17.4246C0.596961 17.3925 0.614946 17.3491 0.614946 17.3038V17.1037C0.612397 16.8993 0.634027 16.6953 0.679386 16.496C0.684635 16.474 0.68548 16.4513 0.681873 16.429C0.678266 16.4067 0.670279 16.3854 0.658373 16.3662C0.646467 16.3471 0.630879 16.3304 0.612511 16.3173C0.594142 16.3042 0.573357 16.2949 0.551358 16.2899C0.529827 16.2846 0.507467 16.2838 0.48559 16.2873C0.463713 16.2908 0.44276 16.2986 0.423958 16.3104C0.405156 16.3221 0.388886 16.3375 0.3761 16.3556C0.363314 16.3737 0.354271 16.3941 0.349501 16.4158C0.297123 16.6413 0.271624 16.8722 0.273538 17.1037V17.3034C0.273482 17.3259 0.277856 17.3481 0.286409 17.3689C0.294963 17.3896 0.307528 17.4085 0.323385 17.4244C0.339242 17.4403 0.358079 17.4529 0.378817 17.4615C0.399556 17.4701 0.421789 17.4746 0.444242 17.4746Z" fill="#109615" stroke="#109615" stroke-width="0.3"/>
  <path d="M20.0004 16.0106C20.0006 14.9439 19.6589 13.9053 19.0254 13.0471C18.3919 12.1889 17.5 11.5564 16.4806 11.2423C15.4612 10.9283 14.368 10.9493 13.3614 11.3022C12.3548 11.6552 11.4879 12.3215 10.8878 13.2034C10.7393 13.1607 10.6053 13.118 10.4832 13.0754L10.1418 12.1032C11.1234 11.423 11.3368 10.2745 11.3867 9.81791C11.9684 9.71378 12.5389 9.00707 12.7562 8.08398C12.8603 7.64186 12.7084 7.21681 12.3866 7.05123C12.2677 6.98905 12.1313 6.96904 11.9995 6.99447C12.1276 6.48449 12.2389 5.71632 12.285 5.18074C12.3546 4.36989 12.3277 3.17752 11.2911 2.18147C10.8744 1.78525 10.3823 1.47682 9.84403 1.27449C9.30578 1.07215 8.73237 0.980034 8.15783 1.00361C7.02905 1.04885 6.01251 1.51913 5.29598 2.32656L5.22983 2.40039C4.76765 2.91763 4.19237 3.56161 4.22822 5.29212C4.24103 5.89556 4.41344 6.55789 4.57689 7.00257C4.45256 6.98951 4.32721 7.01467 4.21755 7.0747C3.9568 7.21553 3.74812 7.58211 3.86505 8.0827C4.08355 9.00749 4.65584 9.71591 5.23666 9.81748C5.29 10.2656 5.51917 11.4148 6.48792 12.096L6.00867 13.0348C5.7142 13.1287 5.38474 13.22 5.03736 13.3169C3.74556 13.6767 2.28177 14.0851 1.30534 14.9139C1.07448 15.1071 0.872299 15.3323 0.704892 15.5826C0.680881 15.6204 0.672688 15.6661 0.682077 15.7099C0.691467 15.7537 0.717688 15.792 0.755087 15.8167C0.792486 15.8413 0.838068 15.8503 0.882005 15.8416C0.925943 15.8329 0.964717 15.8073 0.989968 15.7704C1.13937 15.5468 1.31986 15.3456 1.52598 15.1729C2.44522 14.3919 3.87102 13.9946 5.12869 13.6447C5.27293 13.6046 5.41362 13.5651 5.55075 13.5265C5.61647 13.946 5.87082 14.4355 6.23656 14.8281C6.49933 15.1155 6.81975 15.3443 7.1769 15.4995C7.53405 15.6547 7.91992 15.7329 8.30933 15.729C9.12444 15.729 9.71124 15.4268 10.1017 15.1106C10.0475 15.4051 10.0202 15.7039 10.0202 16.0034C10.0212 17.0069 10.325 17.9868 10.8917 18.8149C11.4585 19.6431 12.2619 20.281 13.197 20.6452H1.11245C0.806888 20.6452 0.614846 20.1301 0.614846 19.7806V18.1568C0.614846 18.1115 0.596861 18.0681 0.564847 18.0361C0.532834 18.0041 0.489415 17.9861 0.444142 17.9861C0.398868 17.9861 0.355449 18.0041 0.323436 18.0361C0.291422 18.0681 0.273438 18.1115 0.273438 18.1568V19.781C0.273438 20.2932 0.558086 20.9871 1.11245 20.9871H15.0287C15.0287 20.9871 15.0308 20.9935 15.0321 20.9935C17.7736 20.9815 20.0004 18.7547 20.0004 16.0106ZM4.56878 5.287C4.53549 3.69092 5.03821 3.12717 5.48332 2.62999L5.55032 2.55488C6.2054 1.81616 7.13489 1.38684 8.1685 1.34544C8.69737 1.32346 9.22527 1.40796 9.72085 1.59395C10.2164 1.77994 10.6696 2.06362 11.0534 2.42813C11.9735 3.31281 12.0128 4.34855 11.9436 5.15214C11.9 5.64665 11.8287 6.13833 11.7302 6.62489C11.6078 5.84221 11.3577 4.69551 10.8989 4.21114L10.8686 4.15054C10.8542 4.12169 10.8319 4.0975 10.8044 4.08079C10.7768 4.06407 10.745 4.05551 10.7128 4.05609C10.6806 4.05667 10.6491 4.06637 10.6222 4.08407C10.5952 4.10176 10.5738 4.12673 10.5605 4.15609C10.0415 5.29767 9.47268 5.24688 8.68274 5.17647C8.59184 5.16836 8.49924 5.16025 8.40535 5.15342C8.19453 5.13849 8.11729 5.24347 8.08955 5.30706C8.06181 5.37064 7.97859 5.56567 8.55472 6.15716C7.42466 6.18789 7.17372 5.46069 6.96802 4.86707C6.8464 4.51499 6.73117 4.18425 6.41025 4.18425C6.2294 4.18069 6.04988 4.21586 5.88375 4.2874C5.71762 4.35895 5.56872 4.46521 5.44705 4.59906C4.96737 5.11373 4.83252 6.0014 4.80008 6.61422C4.68656 6.23142 4.57817 5.74406 4.56878 5.287ZM5.56526 9.64465C5.56407 9.59823 5.54553 9.55395 5.5133 9.52054C5.48107 9.48712 5.43748 9.46699 5.39114 9.46413C4.92171 9.46413 4.39722 8.83423 4.19835 7.99308C4.12153 7.66789 4.23462 7.45238 4.381 7.37343C4.51543 7.30088 4.67333 7.34612 4.81459 7.49506C4.83841 7.51998 4.86922 7.5371 4.90296 7.54417C4.93671 7.55124 4.9718 7.54793 5.00362 7.53468C5.03545 7.52142 5.06251 7.49884 5.08126 7.4699C5.1 7.44097 5.10954 7.40704 5.10863 7.37258C5.13553 7.33927 5.14893 7.29708 5.14618 7.25436C5.14618 7.23729 5.03523 5.54476 5.70097 4.82909C5.7907 4.72966 5.90092 4.65086 6.02402 4.59811C6.14713 4.54536 6.2802 4.51991 6.41409 4.52353C6.49176 4.52353 6.57924 4.77574 6.64923 4.97802C6.87328 5.62542 7.2467 6.70854 8.96995 6.46272C9.00198 6.45818 9.03207 6.44463 9.05669 6.42364C9.08132 6.40266 9.09947 6.37511 9.10904 6.34421C9.11861 6.31331 9.1192 6.28032 9.11075 6.24909C9.10229 6.21786 9.08514 6.18968 9.06128 6.16783C8.79925 5.92671 8.55472 5.65273 8.45741 5.49867C8.52442 5.50379 8.59056 5.50977 8.65586 5.51574C9.42146 5.58402 10.1495 5.64889 10.744 4.55681C11.2062 5.20549 11.4383 6.83144 11.4913 7.44427C11.4949 7.48698 11.5145 7.52676 11.5461 7.5557C11.5777 7.58464 11.6191 7.60062 11.662 7.60047H11.6769C11.7111 7.59747 11.7436 7.58422 11.7702 7.56244C11.7968 7.54067 11.8162 7.51138 11.8258 7.47841C11.9577 7.33587 12.1045 7.29106 12.2304 7.35593C12.3793 7.43275 12.5035 7.66917 12.4241 8.00674C12.2266 8.84234 11.7085 9.49101 11.2407 9.49101H11.2314C11.1981 9.48994 11.1654 9.49902 11.1375 9.51705C11.1132 9.53219 11.0932 9.55317 11.0792 9.57808C11.0652 9.60298 11.0576 9.63101 11.0572 9.65958C11.044 9.91564 10.9224 11.2249 9.84609 11.8903C9.42915 12.1463 8.91277 12.2773 8.30976 12.2773C7.70674 12.2773 7.19378 12.1391 6.77726 11.8753C5.72146 11.2083 5.58063 9.89899 5.56526 9.64465ZM10.2626 14.4704C9.98692 14.8119 9.36641 15.3876 8.30976 15.3876C6.7205 15.3876 5.96258 14.0595 5.88277 13.4309C5.98519 13.4001 6.08506 13.3694 6.1815 13.3383C6.2028 13.3312 6.22251 13.3201 6.2395 13.3054C6.25649 13.2908 6.27042 13.2729 6.28051 13.2529L6.78025 12.2756C7.21554 12.5035 7.72894 12.617 8.31018 12.617C8.89143 12.617 9.40696 12.5039 9.84225 12.2812L10.1896 13.2657C10.1982 13.2901 10.2122 13.3122 10.2305 13.3304C10.2488 13.3485 10.271 13.3623 10.2955 13.3707C10.4175 13.4134 10.5515 13.456 10.6992 13.4987C10.521 13.8039 10.376 14.1272 10.2664 14.4632L10.2626 14.4704ZM15.0107 20.6585C14.0914 20.6585 13.1927 20.3858 12.4283 19.8751C11.6638 19.3643 11.0681 18.6383 10.7163 17.7889C10.3645 16.9395 10.2724 16.0049 10.4518 15.1032C10.6312 14.2015 11.074 13.3733 11.7241 12.7232C12.3742 12.0732 13.2025 11.6305 14.1042 11.4512C15.0059 11.2719 15.9405 11.364 16.7899 11.7159C17.6392 12.0678 18.3651 12.6636 18.8758 13.4281C19.3866 14.1925 19.6591 15.0913 19.659 16.0106C19.658 17.2431 19.1679 18.4247 18.2964 19.2962C17.4249 20.1676 16.2432 20.6576 15.0107 20.6585Z" fill="#109615" stroke="#109615" stroke-width="0.3"/>
</svg>