<svg width="28" height="29" viewBox="0 0 28 29" fill="none" xmlns="http://www.w3.org/2000/svg">
<g id="Group 4776">
<path id="Vector" d="M20.6622 0.0961622L20.3258 0.19227C19.5089 0.432538 18.7881 0.696833 18.1153 0.937074C17.5146 1.15332 16.914 1.36956 16.2172 1.58577L15.3042 0L2.40167 7.44804L2.59389 7.76039C3.12248 8.64941 3.67512 9.56238 4.20366 10.4514C4.73219 11.3404 5.28489 12.2534 5.81343 13.1424L6.43813 12.782C5.90953 11.893 5.35689 10.98 4.82835 10.091L3.38674 7.71236L15.0157 0.984853L26.2603 20.4227L14.5835 27.1502C14.1751 26.5736 13.7666 25.9969 13.3582 25.3962L11.9166 23.378L11.3159 23.7864L12.7575 25.8047C13.238 26.4774 13.7186 27.1502 14.175 27.8229L14.3673 28.0872L27.2215 20.6628V20.6388L27.2936 20.6147L20.6622 0.0961622ZM18.3556 1.60982C18.9322 1.39358 19.5089 1.20137 20.1816 0.985127L25.6839 18.0203L16.5779 2.21036C17.2266 2.01814 17.8032 1.8019 18.3559 1.60966L18.3556 1.60982Z" fill="white"/>
<path id="Vector_2" d="M16.9865 21.9849C16.6501 21.9368 16.1215 21.8647 15.5449 22.081C15.0163 22.2972 14.5838 22.6576 14.2714 23.2102L14.8961 23.5706C15.1364 23.1622 15.4487 22.8738 15.8091 22.7297C16.2176 22.5856 16.578 22.6336 16.9144 22.6576C17.8995 22.8018 18.2839 23.1382 18.428 23.2823L18.6203 23.4986L21.2152 22.057L21.1431 21.7927C21.095 21.6485 20.9268 20.9036 21.5035 19.8225C21.8639 19.1497 22.3684 18.6932 23.0171 18.477L23.4256 18.3328L23.2094 17.9484C22.6808 17.0354 22.1281 16.0743 21.5515 15.0892C20.8307 13.8639 20.0858 12.5904 19.4131 11.4131L19.2929 11.2449L18.3318 9.58701C17.3948 7.97724 16.4097 6.27131 15.5447 4.78165L15.3045 4.39722L14.9681 4.70957C14.7759 4.90178 14.1992 5.43037 13.094 5.38232C11.8687 5.33426 11.316 4.80567 11.2199 4.70957L11.0277 4.49332L8.40874 6.00699L8.48082 6.27128C8.52888 6.4635 8.62498 6.99209 8.26458 7.90511C7.95223 8.67396 7.37556 9.17856 6.5587 9.37077L6.05414 9.51493L6.29441 9.92339C6.70286 10.6202 6.847 10.9085 7.30353 11.6293L7.92823 11.2689C7.59186 10.6922 7.42367 10.4039 7.15937 9.97141C8.1925 9.58698 8.69709 8.81813 8.96136 8.19343C9.29773 7.35252 9.29773 6.75182 9.24968 6.36739L10.9076 5.40632C11.2439 5.67061 11.9407 6.05501 13.07 6.12712C13.8629 6.17517 14.5596 5.95893 15.1603 5.52642C15.9772 6.91998 16.8662 8.4817 17.7311 9.97141L18.7642 11.7494L18.8363 11.8455C19.5091 12.9988 20.2299 14.2722 20.9507 15.4735C21.4553 16.3144 21.9358 17.1554 22.3923 17.9723C21.7676 18.2847 21.2631 18.7892 20.8786 19.51C20.3741 20.5192 20.35 21.312 20.4221 21.7446L18.7642 22.7056C18.4279 22.4173 17.8752 22.1049 16.9863 21.9848L16.9865 21.9849Z" fill="white"/>
<path id="Vector_3" d="M4.85293 23.8346L6.89523 20.5429C7.80825 21.3838 10.0908 23.2099 12.71 22.6573C14.1036 22.3689 15.0646 21.4799 15.7374 20.9033C17.4914 19.3175 18.2842 17.4194 18.6447 16.122L19.2454 13.8874L17.996 15.8096C17.8998 15.9538 15.6653 19.3656 12.3976 19.4617C11.845 19.4857 10.5475 19.5097 9.34619 18.7169C8.9137 18.4045 8.57733 18.0922 8.36106 17.8278L10.9079 13.7913L0 13.7433L4.85293 23.8346ZM7.47188 17.876L7.61604 18.0682C7.85631 18.4045 8.28879 18.8851 8.93749 19.3416C10.331 20.2786 11.7966 20.2306 12.4214 20.2066C14.4397 20.1345 16.0735 18.9812 17.1547 17.9241C16.7222 18.741 16.0975 19.6059 15.2326 20.3748C14.6079 20.9274 13.7669 21.6962 12.5656 21.9606C9.82656 22.5372 7.35177 20.0144 7.0875 19.726L6.77515 19.3897L4.92506 22.3449L1.15282 14.4641L9.61026 14.5122L7.47188 17.876Z" fill="white"/>
</g>
</svg>
