<svg width="21" height="27" viewBox="0 0 21 27" fill="none" xmlns="http://www.w3.org/2000/svg">
<path d="M19.2047 4.86421L13.0969 3.23905L13.4259 2.03199C13.5668 1.56757 13.285 1.05682 12.7682 0.964213L9.19763 0.0357259C8.72768 -0.103535 8.21084 0.174987 8.11713 0.685709L7.78809 1.89277L1.68033 0.267603C0.975727 0.08203 0.270776 0.499812 0.0830149 1.14983L0.036152 1.3354C-0.104769 1.79982 0.177073 2.31057 0.693886 2.40317L18.923 7.18531C19.3929 7.32457 19.9098 7.04605 20.0035 6.53533L20.0503 6.34976C20.3322 5.74641 19.9094 5.04976 19.2045 4.86421H19.2047ZM12.6273 2.17136L12.3923 3.05358L8.58687 2.07842L8.82185 1.19619C8.86872 0.963982 9.15089 0.824721 9.38554 0.871033L12.2983 1.66028C12.5333 1.6606 12.6742 1.93915 12.6273 2.17136ZM16.9497 26.2678H3.41882L0.646952 8.34635H19.6747L16.9497 26.2678ZM4.40544 25.2H15.9161L18.5002 9.36786H1.77452L4.40544 25.2ZM6.23775 23.0179L5.25096 11.5964L5.67372 11.5501L6.66051 22.9715L6.23775 23.0179ZM14.0838 23.0179L13.661 22.9715L14.6478 11.5501L15.0706 11.5964L14.0838 23.0179ZM10.2783 23.1571H9.80834V11.4107H10.2783V23.1571Z" fill="#FF1010"/>
</svg>
