<svg width="32" height="32" viewBox="0 0 32 32" fill="none" xmlns="http://www.w3.org/2000/svg">
<path id="Vector" d="M5.22445 16.5779C4.90524 16.5779 4.64627 16.3189 4.64627 15.9997C4.64627 15.6805 4.90524 15.4215 5.22445 15.4215H13.3282C13.4412 14.9006 13.7031 14.4343 14.0672 14.0696L14.071 14.0659C14.5661 13.5724 15.2486 13.2666 16 13.2666C16.7519 13.2666 17.4347 13.5727 17.9304 14.0672L17.9341 14.071C18.2974 14.4354 18.5588 14.9014 18.6718 15.4215H26.7756C27.0948 15.4215 27.3538 15.6805 27.3538 15.9997C27.3538 16.3189 27.0948 16.5779 26.7756 16.5779H18.6718C18.5589 17.0988 18.2969 17.5652 17.9328 17.9298L17.9291 17.9336C17.434 18.4271 16.7515 18.7328 16 18.7328C15.2481 18.7328 14.5653 18.4268 14.0697 17.9322L14.0659 17.9285C13.7026 17.5641 13.4412 17.098 13.3282 16.5779H5.22445ZM3.84617 0H28.154C29.2109 0 30.172 0.432974 30.8689 1.12892C31.567 1.82784 32 2.78926 32 3.84617V28.154C32 29.2109 31.567 30.172 30.8711 30.8689C30.1722 31.567 29.2107 32 28.1538 32H3.84597C2.78906 32 1.82798 31.567 1.13113 30.8711C0.432967 30.1722 0 29.2107 0 28.1538V3.84597C0 2.78906 0.432974 1.82798 1.12892 1.13113C1.82784 0.432967 2.78926 0 3.84617 0ZM28.154 1.15667H3.84617C3.10609 1.15667 2.43271 1.45894 1.94591 1.9457C1.45915 2.43246 1.15687 3.10588 1.15687 3.84597V28.1538C1.15687 28.8939 1.45915 29.5673 1.94591 30.0541C2.43267 30.5409 3.10609 30.8431 3.84617 30.8431H28.154C28.8941 30.8431 29.5675 30.5409 30.0543 30.0541C30.5411 29.5673 30.8433 28.8939 30.8433 28.1538V3.84597C30.8433 3.10588 30.5411 2.43251 30.0543 1.9457C29.5675 1.45895 28.8941 1.15667 28.154 1.15667ZM5.22445 23.7475C4.90524 23.7475 4.64627 23.4886 4.64627 23.1693C4.64627 22.8501 4.90524 22.5911 5.22445 22.5911H18.7064C18.8194 22.0697 19.0816 21.6031 19.4454 21.2387C19.9394 20.7422 20.6233 20.4359 21.3779 20.4359C22.1325 20.4359 22.8164 20.7425 23.3104 21.2365L23.3437 21.2726C23.6904 21.6319 23.9396 22.0858 24.0497 22.5914H26.7758C27.095 22.5914 27.354 22.8504 27.354 23.1696C27.354 23.4888 27.095 23.7478 26.7758 23.7478H24.0497C23.9372 24.2706 23.6748 24.7377 23.3107 25.1021C22.8166 25.5961 22.1328 25.9027 21.3782 25.9027C20.626 25.9027 19.9424 25.5961 19.4478 25.1021C19.0813 24.7377 18.8191 24.2706 18.7064 23.7478H5.22441L5.22445 23.7475ZM5.22445 9.40845C4.90524 9.40845 4.64627 9.14948 4.64627 8.83026C4.64627 8.51105 4.90524 8.25207 5.22445 8.25207H7.95059C8.063 7.72928 8.32547 7.26215 8.68957 6.89775C9.18359 6.40373 9.86744 6.09715 10.6221 6.09715C11.3743 6.09715 12.0578 6.40372 12.5524 6.89775C12.919 7.26215 13.1812 7.72926 13.2939 8.25207H26.7758C27.095 8.25207 27.354 8.51105 27.354 8.83026C27.354 9.14948 27.095 9.40845 26.7758 9.40845H13.2939C13.1809 9.9299 12.9187 10.3965 12.5549 10.7609C12.0609 11.2574 11.377 11.5637 10.6224 11.5637C9.86779 11.5637 9.18388 11.2571 8.68992 10.7631L8.65657 10.727C8.30992 10.3677 8.06063 9.91381 7.95063 9.40821H5.2245L5.22445 9.40845ZM17.1154 14.8841C16.8311 14.599 16.4361 14.4231 15.9999 14.4231C15.5637 14.4231 15.1684 14.599 14.8852 14.8824C14.5994 15.168 14.4235 15.5631 14.4235 15.9996C14.4235 16.4358 14.5994 16.8311 14.8828 17.1143C15.1684 17.4001 15.5635 17.576 16 17.576C16.4362 17.576 16.8315 17.4001 17.1146 17.1167C17.4005 16.8311 17.5764 16.436 17.5764 15.9995C17.5764 15.5633 17.4005 15.168 17.1154 14.8841ZM22.4923 22.0543C22.2078 21.7698 21.813 21.5925 21.3777 21.5925C20.9423 21.5925 20.5475 21.7698 20.263 22.0543C19.9774 22.338 19.8013 22.7336 19.8013 23.1695C19.8013 23.6049 19.9785 23.9997 20.263 24.2842C20.5467 24.5698 20.942 24.7459 21.3777 24.7459C21.8131 24.7459 22.2079 24.5687 22.4923 24.2842C22.7769 23.9997 22.9541 23.6049 22.9541 23.1695C22.9541 22.747 22.7884 22.3617 22.5187 22.079L22.4923 22.0545V22.0543ZM11.7373 7.7152C11.4531 7.43014 11.058 7.254 10.6221 7.254C10.1867 7.254 9.79192 7.43122 9.50745 7.71574C9.22293 8.00026 9.04571 8.39505 9.04571 8.83041C9.04571 9.2529 9.21136 9.63824 9.4811 9.92092L9.50745 9.94539C9.79198 10.2299 10.1868 10.4071 10.6221 10.4071C11.0575 10.4071 11.4523 10.2299 11.7368 9.94539C12.0224 9.66168 12.1985 9.26608 12.1985 8.83017C12.1985 8.39478 12.0213 7.99997 11.7373 7.71495L11.7373 7.7152Z" fill="#3C7E2D"/>
</svg>
