<svg width="22" height="22" viewBox="0 0 22 22" fill="none" xmlns="http://www.w3.org/2000/svg">
<path d="M11 15.6822C11.3795 15.6822 11.6875 15.3746 11.6875 14.9957V2.7057L16.3467 7.57473C16.4817 7.71581 16.6626 7.78687 16.8437 7.78687C17.0146 7.78687 17.1854 7.72371 17.3184 7.5967C17.5927 7.33443 17.6027 6.90019 17.3404 6.62591L11 0L4.65915 6.62591C4.39687 6.90019 4.40684 7.33443 4.68115 7.5967C4.95615 7.85861 5.39134 7.84866 5.65328 7.57473L10.3125 2.7057V14.9957C10.3125 15.375 10.6205 15.6822 11 15.6822Z" fill="white"/>
<path d="M0 14.0382V17.159C0 19.6439 1.88066 21.5903 4.28141 21.5903H17.7189C20.1193 21.5903 22 19.6439 22 17.159V14.1941C22 13.8151 21.692 13.5075 21.3125 13.5075C20.933 13.5075 20.625 13.8151 20.625 14.1941V17.159C20.625 18.9025 19.3755 20.2172 17.7186 20.2172H4.28141C2.62453 20.2172 1.375 18.9025 1.375 17.159V14.0382C1.375 13.6593 1.067 13.3517 0.6875 13.3517C0.308 13.3517 0 13.6593 0 14.0382Z" fill="white"/>
</svg>
