<svg width="27" height="29" viewBox="0 0 27 29" fill="none" xmlns="http://www.w3.org/2000/svg">
<g id="Group">
<path id="Vector" d="M5.42111 11.9232V0.55792C5.42111 0.250307 5.67295 0 5.98244 0H20.1416C20.2967 0 20.4365 0.0625767 20.5386 0.163358L26.419 6.00802C26.5283 6.1167 26.5833 6.25964 26.5833 6.40258V28.4421C26.5833 28.7497 26.3315 29 26.022 29H5.98244C5.67295 29 5.42111 28.7497 5.42111 28.4421V23.4544H0.56133C0.251837 23.4544 0 23.2041 0 22.8965V12.4804C0 12.1728 0.251837 11.9225 0.56133 11.9225H5.42111V11.9232ZM20.7036 1.90562L20.7149 6.15425H24.9782L20.7036 1.90562ZM25.4607 7.27009H20.1575C19.8494 7.26746 19.5988 7.01847 19.5988 6.71217L19.5843 1.11584H6.54311V11.9232H17.9129C18.2224 11.9232 18.4742 12.1735 18.4742 12.4811V22.8971C18.4742 23.2047 18.2224 23.455 17.9129 23.455H6.54311V27.8848H25.46V7.27075L25.4607 7.27009ZM17.3515 13.039H1.12266V22.3392H17.3515V13.039Z" fill="white"/>
<path id="Vector_2" d="M2.68481 20.1504L4.39399 17.5834L2.84321 15.2266H4.01226L4.98713 16.6928L5.962 15.2266H7.13304L5.57828 17.5841L7.28481 20.1504H6.08395L4.98647 18.4825L3.887 20.1504H2.68481Z" fill="white"/>
<path id="Vector_3" d="M7.82849 20.1504V15.2681H8.83186V19.3184H11.3151V20.1504H7.82849Z" fill="white"/>
<path id="Vector_4" d="M11.7634 18.555L12.739 18.4581C12.7973 18.7835 12.9152 19.02 13.0942 19.1735C13.2731 19.3256 13.5137 19.4007 13.8166 19.4007C14.1373 19.4007 14.3799 19.3336 14.5422 19.1985C14.7053 19.0628 14.7875 18.9047 14.7875 18.7236C14.7875 18.607 14.7523 18.5075 14.6847 18.4252C14.6158 18.3448 14.4959 18.273 14.3255 18.2138C14.2096 18.1729 13.9438 18.1011 13.5289 17.9977C12.9948 17.8653 12.6197 17.7026 12.4043 17.5089C12.1014 17.2376 11.9503 16.9062 11.9503 16.515C11.9503 16.264 12.0212 16.0282 12.1637 15.8088C12.3062 15.5901 12.5116 15.4235 12.7801 15.3089C13.0491 15.1943 13.3725 15.137 13.7529 15.137C14.3719 15.137 14.8385 15.274 15.1513 15.548C15.4648 15.8214 15.6291 16.1863 15.6444 16.6434L14.641 16.6777C14.5986 16.4234 14.5078 16.2416 14.3679 16.1303C14.2281 16.0183 14.0187 15.963 13.7397 15.963C13.4514 15.963 13.2254 16.0223 13.063 16.1415C12.9577 16.2186 12.9046 16.3206 12.9046 16.4484C12.9046 16.5657 12.9543 16.6652 13.0531 16.7475C13.1797 16.8542 13.4852 16.9642 13.971 17.0788C14.4554 17.1928 14.814 17.312 15.0459 17.4325C15.2792 17.5557 15.4614 17.7224 15.5927 17.9338C15.7246 18.1459 15.7902 18.4074 15.7902 18.7183C15.7902 18.9996 15.712 19.2644 15.5529 19.5107C15.3952 19.7571 15.1732 19.9409 14.8842 20.0601C14.5959 20.18 14.2367 20.2399 13.8066 20.2399C13.1803 20.2399 12.6999 20.0963 12.3639 19.8091C12.0285 19.5226 11.8297 19.1043 11.7634 18.555Z" fill="white"/>
</g>
</svg>
